<svg xmlns="http://www.w3.org/2000/svg" xmlns:xlink="http://www.w3.org/1999/xlink" width="268.296" height="237" viewBox="0 0 268.296 237"><defs><style>.a,.b{fill-rule:evenodd;}.b{fill:#fff;}.c,.d{stroke:#000;stroke-miterlimit:10;stroke-width:0.5px;}.d{font-size:52px;font-family:FrenteH1-Regular, Frente H1;}.e{filter:url(#c);}.f{filter:url(#a);}</style><filter id="a" x="8.928" y="44.76" width="259.368" height="192.24" filterUnits="userSpaceOnUse"><feOffset dy="3" input="SourceAlpha"/><feGaussianBlur stdDeviation="3" result="b"/><feFlood flood-opacity="0.161"/><feComposite operator="in" in2="b"/><feComposite in="SourceGraphic"/></filter><filter id="c" x="0" y="0" width="255.635" height="129.939" filterUnits="userSpaceOnUse"><feOffset dy="3" input="SourceAlpha"/><feGaussianBlur stdDeviation="3" result="d"/><feFlood flood-opacity="0.161"/><feComposite operator="in" in2="d"/><feComposite in="SourceGraphic"/></filter></defs><g transform="translate(-2.05 -0.618)"><g class="f" transform="matrix(1, 0, 0, 1, 2.05, 0.62)"><path class="a" d="M202.767,29.914c-2.924-1.645-3.968-4.7-7.492-6.135-5.8-.261-11.512,3.028-17.073,5.221-18.274,7.466-39.5,16.342-55.473,24.434C90.749,69.62,56.395,82.15,27.627,99.458a46.231,46.231,0,0,0-.809,9.842c-1.7,9.737-9.32,17.2-12.348,26.418,8.771,17.986,18.274,34.38,27.306,51.323,7.127,3.368,15.3,3.994,21.041,10.964,22.189-7.048,44.4-17.412,66.464-27.436,21.72-9.737,43.935-18.274,65.263-27.906,16.812-7.544,37.409-13.81,48.66-23.756,1.619-1.88-1.723-4.072,0-6.187,2.611-7.1,8.51-12.922,12.635-19.422-9.528-19.866-21.693-44.379-31.666-63.122C216.263,31.376,209.032,33.386,202.767,29.914Z" transform="translate(3.46 27)"/></g><path class="b" d="M115.411,25.8c6.918,9.946,17.073,11.095,28.9,8.354,3.08,7.675,6.84,13.575,9.972,21.145l-3.159,1.41c-4.542-3.864-6.97-13.288-11.277-17.725-11.225,3.707-19.422-.6-25.975-9.215C98.391,37.417,81,47.18,64.271,55.4L62,50.7C78.107,41.724,98.547,35.015,115.411,25.8Z" transform="translate(82.056 30.892)"/><path class="b" d="M103.337,37.53l2.3,5.221C82.14,54.994,54.912,65.828,32.54,78.463a29.448,29.448,0,0,0-3.42-6.526C54.285,60.581,77.676,48.625,103.337,37.53Z" transform="translate(29.102 49.783)"/><path class="b" d="M59.37,37.38l2.376-1.07a18.273,18.273,0,0,1,2.611,4.568l-2.767,1.253Z" transform="translate(77.82 47.819)"/><path class="b" d="M39.642,52.32l3.185,7a61.4,61.4,0,0,0-6.135,3.237c.365,8.432-.679,16.342-5.4,22.842-1.488,1.279-1.7.914-3.341,1.018-1.984,4.255,2.323,10.938,4.725,16.864l-5.926,2.611a202.309,202.309,0,0,1-9.476-19A61.66,61.66,0,0,0,27.4,57.672Z" transform="translate(10.017 73.603)"/><path class="b" d="M27.5,51.892l1.175-.522c.365,3,5.43,5.926,1.436,7.414A34.616,34.616,0,0,0,27.5,51.892Z" transform="translate(26.493 72.073)"/><path class="b" d="M174.193,30c7.414,7.153,16.107,11.016,27.358,8.119,7.205,14.645,13.81,30.856,21.824,43.335-8.354,6.317-14.227,13.6-14.906,22.842-52,21.8-103.794,39.732-155.952,64.715A57.927,57.927,0,0,0,38.6,159.116c-5.221-11.173-9.946-23.234-15.663-32.814,6.474-7.466,10.886-15.663,9.032-26.366C80.763,77.146,128.744,53.991,174.193,30Z" transform="translate(19.149 37.656)"/><path class="b" d="M76.88,42.12c4.516,4.464,8.171,11.251,12.061,17.36a77.027,77.027,0,0,0-7.466,2.4C79.543,55.146,78.525,48.751,76.88,42.12Z" transform="translate(106.02 57.176)"/><path class="b" d="M103.769,45.285,99.827,47.06a41.1,41.1,0,0,1-3.237-6.135A6.292,6.292,0,0,0,99.8,38.55C101.942,38.6,102.333,43.327,103.769,45.285Z" transform="translate(137.764 51.426)"/><path class="b" d="M27.1,73.54l.888,1.984c-2.115.7-4.829,2.95-6.056,1.305C24.227,75.942,24.958,74.454,27.1,73.54Z" transform="translate(17.522 107.778)"/><path class="b" d="M28.027,78.915l6.03,13.418c2.141,2.61,5.769,1.488,8.2,3.446,3,2.611,5.665,5.743,8.771,7.832,20.884-9.137,47.9-20.571,70.8-29.42a16.446,16.446,0,0,0,2.349,4.151c-24.043,9.737-50.122,20.884-73.094,32.814A49,49,0,0,0,32.8,101.287c-2.95-6.918-6.265-12.818-9.476-19C22.1,80.064,26.644,80.038,28.027,78.915Z" transform="translate(19.439 108.825)"/><path class="b" d="M117.57,42.935l.783-.365c3.289,7.153,6.787,13.731,10.181,20.571-6.239,7.022-14.332,13.314-11.069,23.938-9.085,3.6-18.091,6.866-27.384,10.886-.888-1.436-.157-2.245-1.2-3.733,6.97-2.767,11.852-5.221,18.952-8.51,1.227-.627.522-1.984,1.671-2.611.731-7.832,5.221-14.358,12.452-19.814,1.436-5.56-5.09-12.922-7.832-18.274C115.3,44.293,117.2,43.875,117.57,42.935Z" transform="translate(125.347 57.9)"/><path class="b" d="M62.52,74.047l2.767-1.227,2.3,5.221-3.159,1.41C63.277,77.388,63.773,76.057,62.52,74.047Z" transform="translate(82.893 106.618)"/><path class="b" d="M64.94,72.715c1.227-.94,1.775,0,2.95-.835A26.811,26.811,0,0,0,70.5,76.84l-3.55,1.592A28.037,28.037,0,0,0,64.94,72.715Z" transform="translate(86.791 105.105)"/><path class="b" d="M114.934,63.79c.287,1.514,1.279,1.253,1.645,2.611A388.11,388.11,0,0,1,69.72,88.877c-.522-1.827-2.611-4.229-2.088-5.717C83.007,77.756,99.793,68.619,114.934,63.79Z" transform="translate(90.991 92.076)"/><path class="b" d="M86.91,63.685l1.592-.7c.418,1.357,2.062,3.185.809,3.916S87.771,64.625,86.91,63.685Z" transform="translate(122.174 90.771)"/><path class="c" d="M61.188,89.313c-3.159.574-5.4,2.61-8.3,3.681l.209,1.462c.183,1.1.444,2.219.7,3.315a.94.94,0,0,1-.809,1.2.966.966,0,0,1-1.227-.888l-.522-2.611c-.287-1.488-.653-3.028-.94-4.516l-.992-4.49c-.861-3.55-1.671-7.127-2.611-10.625S45.081,69,44.089,65.662c-.679-2.611-1.54-5.221-2.323-7.832a2.95,2.95,0,0,1,.418-2.95.888.888,0,0,1,1.305-.157,6.134,6.134,0,0,1,1.227,1.671,22.32,22.32,0,0,0,2.141,4.281c1.227,2.115,2.3,4.333,3.446,6.474,1.88,3.472,3.785,6.84,5.717,10.285l4.986,8.432c.574.94,1.175,1.88,1.8,2.793s1.592,2.454,2.349,3.707a6.37,6.37,0,0,1,.444.94.992.992,0,0,1-.627,1.175,1.044,1.044,0,0,1-1.279-.418c-.627-1.1-1.175-2.193-1.749-3.315A13.467,13.467,0,0,0,61.188,89.313Zm-16.264-28.3c.653,2.4,1.2,4.281,1.671,6.187.313,1.41.522,2.872.861,4.307.6,2.611,1.331,5.221,1.984,7.832s1.044,4.777,1.671,7.127a13.914,13.914,0,0,0,1.2,4.281,4.8,4.8,0,0,0,1.331,0,10.259,10.259,0,0,0,1.749-.757l4.438-2.323-.365-.914c-1.044-1.8-2.115-3.6-3.159-5.43-1.488-2.611-3-5.221-4.464-7.832-1.1-1.984-2.219-3.864-3.263-5.874s-1.749-3.629-2.611-5.456C45.734,61.72,45.342,61.511,44.925,61.015Z" transform="translate(49.114 77.125)"/><path class="c" d="M61.7,68.09a9.424,9.424,0,0,0-3.629,1.149,5.637,5.637,0,0,1-.835.522,1.279,1.279,0,0,1-1.357-.627,1.07,1.07,0,0,1,.5-1.253,4.021,4.021,0,0,1,.731-.365c1.775-.653,3.576-1.253,5.221-1.827a1.488,1.488,0,0,1,1.018,1.149C64.6,70.6,66.322,74.121,67.6,77.828a60.26,60.26,0,0,0,2.611,6.422,29.736,29.736,0,0,1,1.671,4.777,5.221,5.221,0,0,1,.339,1.906c0,1.958,0,2.872-1.958,3.942a25.112,25.112,0,0,1-3.472,1.07,6,6,0,0,1-5.874-2.611,20.049,20.049,0,0,1-2.611-4.255c-1.279-2.9-2.48-5.874-3.681-8.8-.522-1.279-1.044-2.741-1.54-4.02a27.068,27.068,0,0,0-2.01-4.386,8.615,8.615,0,0,1-.888-1.932l-2.167-5.43a12.007,12.007,0,0,1-.522-1.958l-.835-3.315a8.406,8.406,0,0,1,0-2.428,4.908,4.908,0,0,1,3.159-4.307,3.993,3.993,0,0,0,.7-.392,5.926,5.926,0,0,1,7.44,1.592,8.667,8.667,0,0,1,1.07,2.219.914.914,0,0,1-.444,1.227,1.253,1.253,0,0,1-1.436-.365A6.369,6.369,0,0,1,56.61,55.4a2.9,2.9,0,0,0-2.323-1.8,5.8,5.8,0,0,0-4.96,1.671,3.6,3.6,0,0,0-.7,3.5c.444,1.853.914,3.707,1.436,5.482s1.305,3.446,1.906,5.221a1.436,1.436,0,0,0,.261.627,50.381,50.381,0,0,1,2.611,6.109c.861,2.193,1.906,4.307,2.9,6.448l1.253,3.159c.679,1.514,1.279,3.08,2.01,4.568a6.083,6.083,0,0,0,4.072,3.576,2.61,2.61,0,0,0,1.149,0,12.322,12.322,0,0,0,3.42-.861c.548,0,.653-1.619.653-2.062a3.55,3.55,0,0,0-.313-1.54,29,29,0,0,0-1.41-4.307c-2.245-6.709-3.968-10.729-6.4-16.368a2.428,2.428,0,0,0-.47-.731Z" transform="translate(57.216 72.164)"/><path class="c" d="M64.06,84.077c-1.41-3.08-3.028-6.84-4.751-10.442A57.265,57.265,0,0,0,56.7,68.414a9.632,9.632,0,0,0-.574-1.123,16.837,16.837,0,0,1-1.044-2.115c-.6-2.115-1.175-4.177-1.671-6.317a14.462,14.462,0,0,1,0-5.43,5.221,5.221,0,0,1,1.357-2.611c.235-.209.574-.235.6-.5.418-1.279,1.41-1.253,2.428-1.331a13.574,13.574,0,0,1,3.55,0A6.6,6.6,0,0,1,66.2,53.247c1.723,4.02,3.315,8.014,4.908,12.008s3.55,8.589,5.221,12.922a40.777,40.777,0,0,1,2.088,8.2,5.769,5.769,0,0,1-3.6,6.317,8.588,8.588,0,0,1-5.691-.131,5.221,5.221,0,0,1-3.133-3.028Zm1.384-28.455c-.209-.653-.522-1.331-.783-1.984a4.2,4.2,0,0,0-2.9-2.611,16.6,16.6,0,0,0-2.95-.418,1.122,1.122,0,0,0-.679.287c-.47.365-.888.861-1.305,1.2A3.263,3.263,0,0,0,55.5,54.056a8.118,8.118,0,0,0-.131,3.994,23.808,23.808,0,0,0,3,9.189c.209.339.313.809.522,1.149,1.123,2.61,2.323,5.012,3.5,7.518s2.349,4.934,3.394,7.544c.7,1.566,1.253,3.159,1.906,4.751a4.255,4.255,0,0,0,3.994,2.767,8.953,8.953,0,0,0,2.767-.365,2.115,2.115,0,0,0,1.671-1.227,7.179,7.179,0,0,0,.5-4.777,43.517,43.517,0,0,0-2.3-7.44,2.194,2.194,0,0,1-.287-.574,55.737,55.737,0,0,0-2.819-7.048l-.183-.679-1.123-2.819-.731-1.8c-.627-1.723-1.279-3.524-2.036-5.221C66.592,57.894,65.965,56.8,65.443,55.623Z" transform="translate(67.805 68.055)"/><path class="c" d="M71.658,71.026a1.514,1.514,0,0,0,0,1.749A34.823,34.823,0,0,1,73.8,78.858a5.456,5.456,0,0,0,.627,1.54,55.861,55.861,0,0,1,3.263,8.171,2.089,2.089,0,0,1,.209.835,2.61,2.61,0,0,1,0,1.149c0,.235-.418.235-1.462,0-.339-.992-.627-2.036-.992-3.08a46.283,46.283,0,0,0-2.3-5.9c-.835-1.775-1.331-3.681-2.01-5.508-1.175-3.42-2.349-6.787-3.6-10.129S64.923,59.7,63.8,56.59c-.287-.757-.627-1.41-.94-2.167A19.657,19.657,0,0,0,60.25,49.2c-.835-1.018-.313-1.723.548-2.193A5.926,5.926,0,0,1,62.7,46.67a14.5,14.5,0,0,1,2.376.365,10.625,10.625,0,0,1,7,5.221,19.762,19.762,0,0,1,3.106,8.328,5.874,5.874,0,0,1-.835,3.916c-.653,1.123-1.279,2.376-1.827,3.446a7.257,7.257,0,0,0,2.193,3.472c2.01,2.115,4.02,4.2,6.109,6.291a15.789,15.789,0,0,1,1.2,1.436,29.944,29.944,0,0,0,5.038,5.482,7.05,7.05,0,0,1,.914.888c.287.261.235.47,0,1.462a2.141,2.141,0,0,1-2.115-.653,67.219,67.219,0,0,1-5.639-6.4,57.428,57.428,0,0,0-6.448-6.84C73.094,72.436,72.468,71.757,71.658,71.026ZM62.1,48.758c1.488,3.237,2.95,6.422,4.281,9.607s2.48,6.5,3.733,9.816c.235-.209.444-.287.548-.47.783-1.436,1.462-2.819,2.271-4.255a4.464,4.464,0,0,0,.392-3.159,23.494,23.494,0,0,0-2.793-7,12.242,12.242,0,0,0-3.028-3.368A5.8,5.8,0,0,0,62.1,48.758Z" transform="translate(78.558 64.504)"/><path class="c" d="M87,79.013c-3.159.574-5.4,2.611-8.3,3.681l.209,1.462c.183,1.1.444,2.219.7,3.315a.94.94,0,0,1-.809,1.2.966.966,0,0,1-1.227-.888l-.522-2.611c-.287-1.488-.653-3.028-.94-4.516l-.992-4.49c-.861-3.55-1.671-7.127-2.611-10.625S70.891,58.7,69.9,55.362c-.679-2.611-1.54-5.221-2.323-7.832a2.95,2.95,0,0,1,.418-2.95.888.888,0,0,1,1.305-.157,6.134,6.134,0,0,1,1.227,1.671,22.32,22.32,0,0,0,2.141,4.281c1.227,2.115,2.3,4.333,3.446,6.474,1.88,3.472,3.785,6.84,5.717,10.285L86.737,75.7c.574.94,1.175,1.88,1.8,2.793s1.592,2.454,2.349,3.707a6.37,6.37,0,0,1,.444.94.992.992,0,0,1-.627,1.175,1.044,1.044,0,0,1-1.279-.418c-.627-1.1-1.175-2.193-1.749-3.315A5.275,5.275,0,0,0,87,79.013Zm-16.263-28.4c.653,2.4,1.2,4.281,1.671,6.187.313,1.41.522,2.872.861,4.307.6,2.611,1.331,5.221,1.984,7.832s1.044,4.777,1.671,7.127A13.914,13.914,0,0,0,78.1,80.214a4.8,4.8,0,0,0,1.384,0,10.258,10.258,0,0,0,1.749-.757l4.438-2.323L85.3,76.22c-1.044-1.8-2.115-3.6-3.159-5.43-1.488-2.611-3-5.221-4.464-7.832-1.1-1.984-2.219-3.864-3.263-5.874s-1.749-3.629-2.611-5.456A7.5,7.5,0,0,1,70.735,50.611Z" transform="translate(90.681 60.537)"/><g class="e" transform="matrix(1, 0, 0, 1, 2.05, 0.62)"><path class="a" d="M25.277,105.665c2.245,2.376,2.088,7.127,5.221,8.641,23,2.611,47.25,2.036,71.424,2.167,23.756,0,47.59,1.2,71.006,1.305,18.274,0,39.471,2.611,53.672-1.723,2.245-1.044,0-4.438,2.611-5.639,5.221-5.43,13.053-8.3,19.474-12.557-.574-22.007-1.592-49.365-3.028-70.484-7.832-2.245-15.272-3.394-19.474-9.085-1.984-2.611-1.7-5.9-4.333-8.667-5.221-2.611-11.721-1.984-17.752-2.167-19.762-.627-42.708-1.279-60.59-.444-35.79,1.671-72.337-.861-105.622,3.028a46.806,46.806,0,0,0-4.751,8.667c-5.508,8.2-15.663,11.878-22.085,19.057.653,20,2.48,38.792,3.89,58.006C17.289,100.1,22.406,101.776,25.277,105.665Z" transform="translate(-2.05 -0.62)"/></g><path class="b" d="M112.744,9.615v5.639c-26.471,1.54-55.708.287-81.37,2.611A29.447,29.447,0,0,0,30.93,10.5C58.549,10.554,84.785,9.223,112.744,9.615Z" transform="translate(32.017 4.709)"/><path class="b" d="M48.674,10.07V17.9c-2.793-.339-4.255.653-6.918.444-3.133,7.832-7.309,14.619-14.28,18.613-1.88.548-1.932,0-3.472-.418-3.55,3.08-2.349,10.912-2.611,17.308H14.92a201.167,201.167,0,0,1-.914-21.276A61.608,61.608,0,0,0,35.23,10.07Z" transform="translate(4.745 5.559)"/><path class="b" d="M29.368,10.07h1.305c-.914,2.9,2.611,7.623-1.723,7.362a34.407,34.407,0,0,0,.418-7.362Z" transform="translate(28.828 5.559)"/><path class="b" d="M196.133,12.23c3.837,9.581,10.181,16.655,21.641,18.613.574,16.316,0,33.806,2.167,48.477-10.207,2.349-18.535,6.552-22.946,14.723-56.413-1.331-111.025-6.187-168.822-4.751a57.979,57.979,0,0,0-8.641-14.723c0-12.3.444-25.27-.861-36.364,8.954-4.177,16.368-9.894,19.057-20.336C91.556,17.033,144.836,15.6,196.133,12.23Z" transform="translate(12.272 9.037)"/><path class="b" d="M64.26,9.57h2.611a18.115,18.115,0,0,1,.444,5.221H64.26Z" transform="translate(85.696 4.753)"/><path class="b" d="M126.117,9.08c2.219,11.93,11.173,17.125,22.946,19.474-.339,8.275.679,15.193.444,23.495h-3.472c-2.611-5.378-.914-14.958-3.028-20.884-11.773-1.2-17.464-8.51-19.918-19.031-17.256.627-37.1,2.428-55.839,3.028V9.941C85.576,8.323,106.852,10.516,126.117,9.08Z" transform="translate(90.511 3.964)"/><path class="b" d="M101.872,34.832H97.539a41.136,41.136,0,0,1-.444-6.918A6.344,6.344,0,0,0,101.011,27C102.943,27.914,101.35,32.378,101.872,34.832Z" transform="translate(138.564 32.825)"/><path class="b" d="M20.576,28.651v2.167c-2.219-.235-5.613.7-6.056-1.305C16.974,29.565,18.227,28.6,20.576,28.651Z" transform="translate(5.589 35.481)"/><path class="b" d="M20.342,31.385V46.108c.861,3.341,4.647,3.707,6.056,6.5,1.7,3.5,2.819,7.57,4.751,10.808,22.764.209,52.21.861,76.619,2.167a16.421,16.421,0,0,0,.444,4.751c-25.922-.966-54.3-1.436-80.091,0A49.13,49.13,0,0,0,15.539,53.887c.157-7.518-.47-14.253-.861-21.223C14.416,30.079,18.567,31.933,20.342,31.385Z" transform="translate(5.823 39.665)"/><path class="b" d="M128.164,31.63h.861c0,7.832.548,15.3.861,22.946-8.562,3.837-18.535,6.291-19.918,17.308-9.711-.522-19.318-1.175-29.447-1.305-.235-1.671.757-2.115.418-3.89,7.492.339,13.053,0,20.884,0,1.384,0,1.279-1.592,2.611-1.723,3.916-6.918,10.7-10.964,19.474-13.053,3.576-4.49.653-13.862.444-19.918C125.632,31.969,127.46,32.361,128.164,31.63Z" transform="translate(111.828 40.281)"/><path class="b" d="M52.45,44.23h3.028v5.639H52.032C51.745,47.6,52.763,46.579,52.45,44.23Z" transform="translate(65.919 60.574)"/><path class="b" d="M55.084,44.274c1.488-.339,1.671.653,3.028.444a26.732,26.732,0,0,0,.444,5.613H54.64a28.194,28.194,0,0,0,.444-6.056Z" transform="translate(70.202 60.53)"/><path class="b" d="M109.018,46.123c-.339,1.514.653,1.671.444,3.028a389.36,389.36,0,0,1-51.949,1.305c.287-1.88-.574-4.882.444-6.056C74.142,45.757,93.225,44.322,109.018,46.123Z" transform="translate(74.717 60.848)"/><path class="b" d="M78.794,45.06h1.723c0,2.01.574,4.621-2.167,3.89C79.081,48.245,78.715,46.417,78.794,45.06Z" transform="translate(108.388 61.911)"/><text class="d" transform="translate(78.662 80.185)"><tspan x="0" y="0">CINEMA</tspan></text></g></svg>